<?xml version="1.0" encoding="UTF-8"?>
<svg width="21px" height="21px" viewBox="0 0 21 21" version="1.1" xmlns="http://www.w3.org/2000/svg" xmlns:xlink="http://www.w3.org/1999/xlink">
    <!-- Generator: Sketch 53 (72520) - https://sketchapp.com -->
    <title>Elements / Map / Marker / Pois / Education</title>
    <desc>Created with Sketch.</desc>
    <g id="Elements-/-Map-/-Marker-/-Pois-/-Education" stroke="none" stroke-width="1" fill="none" fill-rule="evenodd">
        <circle id="Oval" fill="#FFFFFF" cx="10.5" cy="10.5" r="10.5"></circle>
        <path d="M10.5,20 C15.7467051,20 20,15.7467051 20,10.5 C20,5.25329488 15.7467051,1 10.5,1 C5.25329488,1 1,5.25329488 1,10.5 C1,15.7467051 5.25329488,20 10.5,20 Z M10.5,21 C4.70101013,21 0,16.2989899 0,10.5 C0,4.70101013 4.70101013,0 10.5,0 C16.2989899,0 21,4.70101013 21,10.5 C21,16.2989899 16.2989899,21 10.5,21 Z M10.5,4 L18,7.5 L10.5,11 L6,8.9 L6,10.1 C6.6,10.3 7,10.8 7,11.5 C7,12.2 6.6,12.7 6,13 L6.9,15.1 C7.2,16 7,17 5.5,17 C4,17 3.8,16 4.1,15.1 L5,13 L5,12.9 C4.4,12.7 4,12.1 4,11.5 C4,10.9 4.4,10.3 5,10.1 L5,8.4 L3,7.5 L10.5,4 Z M14.9,10.5 L14.9,13.5 C14.9,14.5 13.7,16.5 10.4,16.5 C9.4,16.5 8.6,16.3 7.9,16 C8,15.6 7.9,15.2 7.8,14.8 L7.8,14.7 L7.2,13.3 C7.7,12.8 8,12.2 8,11.5 L8,11.4 L10.4,12.5 L14.9,10.5 Z" id="Combined-Shape" fill="#747474" fill-rule="nonzero"></path>
    </g>
</svg>