<?xml version="1.0" encoding="UTF-8"?>
<svg width="21px" height="21px" viewBox="0 0 21 21" version="1.1" xmlns="http://www.w3.org/2000/svg" xmlns:xlink="http://www.w3.org/1999/xlink">
    <!-- Generator: Sketch 53 (72520) - https://sketchapp.com -->
    <title>Elements / Map / Marker / Pois / Entertainment Arts &amp; Culture</title>
    <desc>Created with Sketch.</desc>
    <g id="Elements-/-Map-/-Marker-/-Pois-/-Entertainment-Arts-&amp;-Culture" stroke="none" stroke-width="1" fill="none" fill-rule="evenodd">
        <circle id="Oval" fill="#FFFFFF" cx="10.5" cy="10.5" r="10.5"></circle>
        <path d="M10.5,20 C15.7467051,20 20,15.7467051 20,10.5 C20,5.25329488 15.7467051,1 10.5,1 C5.25329488,1 1,5.25329488 1,10.5 C1,15.7467051 5.25329488,20 10.5,20 Z M10.5,21 C4.70101013,21 0,16.2989899 0,10.5 C0,4.70101013 4.70101013,0 10.5,0 C16.2989899,0 21,4.70101013 21,10.5 C21,16.2989899 16.2989899,21 10.5,21 Z M5,4 C5.7865,4 6.9776,5 8,5 C9.0224,5 10.2922,4 11,4 C12,4 12,5 12,5 L12,6.3027 L11.1562,5.7539 C9.5046,4.9674 8.8815,5.805 8.5,6.2246 C8.0868,6.6791 8,7.2922 8,8 L8,9.5 C5.5,9.5 5.5,12 5.5,12 L8,11 L8,14 L7.5,14 C4.354,14 4,11.8885 4,10.1582 L4,5 C4,4 5,4 5,4 Z M6,6 C5.4477,6 5,6.4477 5,7 C5,7.5523 5.4477,8 6,8 C6.5523,8 7,7.5523 7,7 C7,6.4477 6.5523,6 6,6 Z M10,7 C10.7865,7 11.9776,8 13,8 C14.0224,8 15.2922,7 16,7 C16,7 17,7 17,8 L17,13 C17,15 16,17 13,17 C10,17 9,15 9,13 L9,8 C9,7 10,7 10,7 Z M11,9 C10.4477,9 10,9.4477 10,10 C10,10.5523 10.4477,11 11,11 C11.5523,11 12,10.5523 12,10 C12,9.4477 11.5523,9 11,9 Z M15,9 C14.4477,9 14,9.4477 14,10 C14,10.5523 14.4477,11 15,11 C15.5523,11 16,10.5523 16,10 C16,9.4477 15.5523,9 15,9 Z M10.5,13 C10.5,13 10.5,15.5 13,15.5 C15.5,15.5 15.5,13 15.5,13 L13,13 L10.5,13 Z" id="Combined-Shape" fill="#747474" fill-rule="nonzero"></path>
    </g>
</svg>