<?xml version="1.0" encoding="UTF-8"?>
<svg width="21px" height="21px" viewBox="0 0 21 21" version="1.1" xmlns="http://www.w3.org/2000/svg" xmlns:xlink="http://www.w3.org/1999/xlink">
    <!-- Generator: Sketch 53 (72520) - https://sketchapp.com -->
    <title>Elements / Map / Marker / Pois / Sustenance</title>
    <desc>Created with Sketch.</desc>
    <g id="Elements-/-Map-/-Marker-/-Pois-/-Sustenance" stroke="none" stroke-width="1" fill="none" fill-rule="evenodd">
        <circle id="Oval" fill="#FFFFFF" cx="10.5" cy="10.5" r="10.5"></circle>
        <path d="M10.5,20 C15.7467051,20 20,15.7467051 20,10.5 C20,5.25329488 15.7467051,1 10.5,1 C5.25329488,1 1,5.25329488 1,10.5 C1,15.7467051 5.25329488,20 10.5,20 Z M10.5,21 C4.70101013,21 0,16.2989899 0,10.5 C0,4.70101013 4.70101013,0 10.5,0 C16.2989899,0 21,4.70101013 21,10.5 C21,16.2989899 16.2989899,21 10.5,21 Z M5.9982,6.0687 C5.9982,6.0687 6.1857,5.0067 6.9982,5.0067 L8.0043,5.0067 L8.0043,4.7276 C8.00429996,4.45145808 8.228158,4.22760008 8.5043,4.22760008 L12.4882,4.22760008 C12.764342,4.22760006 12.9882,4.45145808 12.9882,4.72760008 L12.9882,5.00670008 L13.9982,5.00670008 C14.2435349,5.00589956 14.4767279,5.11336708 14.6354999,5.30040008 C14.8173649,5.52301409 14.9418979,5.78681009 14.9981999,6.06870009 C14.9981999,6.06870009 15.3089999,7.64060009 15.5902999,8.98680009 L14.6522999,8.98680009 L13.9999999,6.00000009 L6.98199995,5.99560009 L6.33359995,8.98680009 L5.38199995,8.98680009 L5.9982,6.0687 Z M16.9982,10.9831 C16.9982,11.5350723 16.550972,11.9826583 15.999,11.9831003 L14.9982,15.9561003 C14.9982,15.9561003 14.8107,16.9978003 13.9982,16.9978003 L6.9982,16.9978003 C6.1857,16.9978003 5.9982,15.9561003 5.9982,15.9561003 L4.9822,11.9800003 C4.43085002,11.9691489 3.99269002,11.5133953 4.00354202,10.9620503 C4.01421482,10.4197753 4.45582402,9.98518732 4.99820002,9.98320532 L15.9982,9.98320532 C16.550446,9.9832053 16.998145,10.4308593 16.9982,10.9831053 Z M8.0327,15.13 L8.03,14.0051 L7.6392,12.4686 C7.59929751,12.1745361 7.32856401,11.9684971 7.03450001,12.0084001 C6.74043601,12.0483026 6.53439701,12.3190361 6.57430001,12.6131001 L6.78000001,14.0075001 L6.96740001,15.2747001 C7.00735781,15.568874 7.27822501,15.774958 7.57240001,15.735 C7.86657401,15.6950422 8.07265801,15.424175 8.03270001,15.13 Z M10.0327,12.5333 L10.0327,12.5332 C10.0327,12.238722 9.79397801,12 9.49950001,12 C9.49943334,12 9.49936666,12 9.49929999,12 L9.49539999,12.0008 L9.4886,12 C9.35396,12.0000307 9.225041,12.0544472 9.1311,12.1509 C9.02609901,12.2505731 8.96653701,12.388925 8.96630001,12.5337 L8.96630001,15.2137 C8.96226763,15.5081516 9.19769801,15.7501196 9.49214901,15.7541516 C9.78660001,15.758184 10.028568,15.5227536 10.0326,15.2283026 C10.0326667,15.2234349 10.0326667,15.2185665 10.0326,15.2136988 L10.0327,12.5333 Z M12.0307,12.5333 C12.0302301,12.3153857 11.896764,12.1198437 11.694002,12.0400007 C11.568512,11.9862662 11.426492,11.9862662 11.301002,12.0400007 C11.098208,12.1198426 10.96476,12.3154557 10.964402,12.5334007 L10.964402,15.2134007 C10.9644021,15.5078238 11.203079,15.7465008 11.497502,15.7465008 C11.791925,15.7465007 12.030602,15.5078238 12.030602,15.2134008 L12.0307,12.5333 Z M14.4164,12.6133 C14.4563025,12.3192359 14.250264,12.0485029 13.9562,12.0085999 C13.662136,11.9686974 13.391403,12.1747359 13.3515,12.4687999 L12.96,13.9937999 L12.9579,15.1299999 C12.9179699,15.424064 13.123986,15.69482 13.41805,15.73475 C13.712114,15.7746801 13.98287,15.568664 14.0228,15.2746 L14.4164,12.6133 Z" id="Combined-Shape" fill="#747474" fill-rule="nonzero"></path>
    </g>
</svg>