<?xml version="1.0" encoding="UTF-8"?>
<svg width="21px" height="21px" viewBox="0 0 21 21" version="1.1" xmlns="http://www.w3.org/2000/svg" xmlns:xlink="http://www.w3.org/1999/xlink">
    <!-- Generator: Sketch 53 (72520) - https://sketchapp.com -->
    <title>Elements / Map / Marker / Pois / Financial</title>
    <desc>Created with Sketch.</desc>
    <g id="Elements-/-Map-/-Marker-/-Pois-/-Financial" stroke="none" stroke-width="1" fill="none" fill-rule="evenodd">
        <circle id="Oval" fill="#FFFFFF" cx="10.5" cy="10.5" r="10.5"></circle>
        <path d="M10.5,20 C15.7467051,20 20,15.7467051 20,10.5 C20,5.25329488 15.7467051,1 10.5,1 C5.25329488,1 1,5.25329488 1,10.5 C1,15.7467051 5.25329488,20 10.5,20 Z M10.5,21 C4.70101013,21 0,16.2989899 0,10.5 C0,4.70101013 4.70101013,0 10.5,0 C16.2989899,0 21,4.70101013 21,10.5 C21,16.2989899 16.2989899,21 10.5,21 Z M4,6 L17,6 C17.554,6 18,6.446 18,7 L18,14 C18,14.554 17.554,15 17,15 L4,15 C3.446,15 3,14.554 3,14 L3,7 C3,6.446 3.446,6 4,6 Z M4,7 L4,8.5 C4,8.7761 4.2239,9 4.5,9 C4.7761,9 5,8.7761 5,8.5 C5,8.2239 4.7761,8 4.5,8 L5,7.5 C5,7.7761 5.2239,8 5.5,8 C5.7761,8 6,7.7761 6,7.5 C6,7.2239 5.7761,7 5.5,7 L4,7 Z M10.5,7 C9.1193,7 8,8.567 8,10.5 C8,12.433 9.1193,14 10.5,14 C11.8807,14 13,12.433 13,10.5 C13,8.567 11.8807,7 10.5,7 Z M15.5,7 C15.2239,7 15,7.2239 15,7.5 C15,7.7761 15.2239,8 15.5,8 C15.7761,8 16,7.7761 16,7.5 L16.5,8 C16.2239,8 16,8.2239 16,8.5 C16,8.7761 16.2239,9 16.5,9 C16.7761,9 17,8.7761 17,8.5 L17,7 L15.5,7 Z M10.5,8.5 C10.823,8.5 11.0336,8.6088 11.1817,8.75 L9.8184,8.75 C9.9664,8.6088 10.177,8.5 10.5,8.5 Z M9.625,9 L11.375,9 C11.4205,9.091 11.4367,9.1711 11.4551,9.25 L9.5449,9.25 C9.5633,9.1711 9.5795,9.091 9.625,9 Z M9.5,9.5 L11.5,9.5 L11.5,9.75 L9.5,9.75 L9.5,9.5 Z M9.5,10 L11.5,10 L11.5,10.25 L9.5,10.25 L9.5,10 Z M9.5,10.5 L11.5,10.5 L11.5,10.75 L9.5,10.75 L9.5,10.5 Z M9.5,11 L11.5,11 L11.25,11.25 L9.25,11.25 L9.5,11 Z M9,11.5 L11,11.5 L11.375,11.75 L9.1016,11.75 C9.0353,11.6024 9,11.5 9,11.5 Z M4.5,12 C4.2239,12 4,12.2239 4,12.5 L4,14 L5.5,14 C5.7761,14 6,13.7761 6,13.5 C6,13.2239 5.7761,13 5.5,13 C5.2239,13 5,13.2239 5,13.5 L4.5,13 C4.7761,13 5,12.7761 5,12.5 C5,12.2239 4.7761,12 4.5,12 Z M9.2383,12 L11.75,12 C11.75,12 11.7092,12.1121 11.6426,12.25 L9.375,12.25 C9.3144,12.159 9.2842,12.0856 9.2383,12 Z M16.5,12 C16.2239,12 16,12.2239 16,12.5 C16,12.7761 16.2239,13 16.5,13 L16,13.5 C16,13.2239 15.7761,13 15.5,13 C15.2239,13 15,13.2239 15,13.5 C15,13.7761 15.2239,14 15.5,14 L17,14 L17,12.5 C17,12.2239 16.7761,12 16.5,12 Z M9.5664,12.5 L11.5,12.5 C11.4338,12.5883 11.3462,12.6727 11.2461,12.75 L9.8262,12.75 C9.7311,12.6763 9.645,12.5912 9.5664,12.5 Z" id="Combined-Shape" fill="#747474" fill-rule="nonzero"></path>
    </g>
</svg>