<?xml version="1.0" encoding="UTF-8"?>
<svg width="21px" height="21px" viewBox="0 0 21 21" version="1.1" xmlns="http://www.w3.org/2000/svg" xmlns:xlink="http://www.w3.org/1999/xlink">
    <!-- Generator: Sketch 53 (72520) - https://sketchapp.com -->
    <title>Elements / Map / Marker / Pois / Healthcare</title>
    <desc>Created with Sketch.</desc>
    <g id="Elements-/-Map-/-Marker-/-Pois-/-Healthcare" stroke="none" stroke-width="1" fill="none" fill-rule="evenodd">
        <circle id="Oval" fill="#FFFFFF" cx="10.5" cy="10.5" r="10.5"></circle>
        <path d="M10.5,20 C15.7467051,20 20,15.7467051 20,10.5 C20,5.25329488 15.7467051,1 10.5,1 C5.25329488,1 1,5.25329488 1,10.5 C1,15.7467051 5.25329488,20 10.5,20 Z M10.5,21 C4.70101013,21 0,16.2989899 0,10.5 C0,4.70101013 4.70101013,0 10.5,0 C16.2989899,0 21,4.70101013 21,10.5 C21,16.2989899 16.2989899,21 10.5,21 Z M8.5,10 C9.8807,10 11,8.8807 11,7.5 L11,5.5 C11,5.2239 10.7761,5 10.5,5 L10,5 C9.7239,5 9.5,4.7761 9.5,4.5 C9.5,4.2239 9.7239,4 10,4 L10.5,4 C11.3284,4 12,4.6716 12,5.5 L12,7.5 C12.001,8.6448 11.4404,9.7172 10.5,10.37 C9.5932,11.1644 9.0511,12.2955 9,13.5 C9,14.8807 10.1193,16 11.5,16 C12.8807,16 14,14.8807 14,13.5 L14,12.93 C13.2955,12.7481 12.7454,12.198 12.5635,11.4935 C12.2874,10.424 12.9305,9.3332 14,9.057 C15.0695,8.7809 16.1603,9.424 16.4365,10.4935 C16.7126,11.563 16.0695,12.6539 15,12.93 L15,13.5 C15,15.433 13.433,17 11.5,17 C9.567,17 8,15.433 8,13.5 C7.9514,12.297 7.4131,11.1662 6.51,10.37 C5.5658,9.7195 5.0013,8.6466 5,7.5 L5,5.5 C5,4.6716 5.6716,4 6.5,4 L7,4 C7.2761,4 7.5,4.2239 7.5,4.5 C7.5,4.7761 7.2761,5 7,5 L6.5,5 C6.2239,5 6,5.2239 6,5.5 L6,7.5 C6,8.8807 7.1193,10 8.5,10 Z M14.5,12 C15.0523,12 15.5,11.5523 15.5,11 C15.5,10.4477 15.0523,10 14.5,10 C13.9477,10 13.5,10.4477 13.5,11 C13.5,11.5523 13.9477,12 14.5,12 Z" id="Combined-Shape" fill="#747474" fill-rule="nonzero"></path>
    </g>
</svg>