<?xml version="1.0" encoding="UTF-8"?>
<svg width="21px" height="21px" viewBox="0 0 21 21" version="1.1" xmlns="http://www.w3.org/2000/svg" xmlns:xlink="http://www.w3.org/1999/xlink">
    <!-- Generator: Sketch 53 (72520) - https://sketchapp.com -->
    <title>Elements / Map / Marker / Pois / Tourism</title>
    <desc>Created with Sketch.</desc>
    <g id="Elements-/-Map-/-Marker-/-Pois-/-Tourism" stroke="none" stroke-width="1" fill="none" fill-rule="evenodd">
        <circle id="Oval" fill="#FFFFFF" cx="10.5" cy="10.5" r="10.5"></circle>
        <path d="M10.5,20 C15.7467051,20 20,15.7467051 20,10.5 C20,5.25329488 15.7467051,1 10.5,1 C5.25329488,1 1,5.25329488 1,10.5 C1,15.7467051 5.25329488,20 10.5,20 Z M10.5,21 C4.70101013,21 0,16.2989899 0,10.5 C0,4.70101013 4.70101013,0 10.5,0 C16.2989899,0 21,4.70101013 21,10.5 C21,16.2989899 16.2989899,21 10.5,21 Z M9,5 L12,5 C12.554,5 12.75,5.5 13,6 L13.5,7 L15.5,7 C16.331,7 17,7.669 17,8.5 L17,13.5 C17,14.331 16.331,15 15.5,15 L5.5,15 C4.669,15 4,14.331 4,13.5 L4,8.5 C4,7.669 4.669,7 5.5,7 L7.5,7 L8,6 C8.2478,5.5045 8.446,5 9,5 Z M5.5,8 C5.2239,8 5,8.2239 5,8.5 C5,8.7761 5.2239,9 5.5,9 C5.7761,9 6,8.7761 6,8.5 C6,8.2239 5.7761,8 5.5,8 Z M10.5,8 C8.8431,8 7.5,9.3431 7.5,11 C7.5,12.6569 8.8431,14 10.5,14 C12.1569,14 13.5,12.6569 13.5,11 C13.5,9.3431 12.1569,8 10.5,8 Z M10.5,9.5 C11.3284,9.5 12,10.1716 12,11 C12,11.8284 11.3284,12.5 10.5,12.5 C9.6716,12.5 9,11.8284 9,11 C9,10.1716 9.6716,9.5 10.5,9.5 Z" id="Combined-Shape" fill="#747474" fill-rule="nonzero"></path>
    </g>
</svg>